<svg width="93" height="31" viewBox="0 0 93 31" fill="none" xmlns="http://www.w3.org/2000/svg">
<g filter="url(#filter0_d_2_236)">
<path d="M25 19.875C24.4333 20.575 23.7417 21.1083 22.925 21.475C22.125 21.8417 21.2417 22.025 20.275 22.025C18.975 22.025 17.8 21.7417 16.75 21.175C15.7 20.625 14.5 19.6417 13.15 18.225C11.5667 18.025 10.15 17.5167 8.9 16.7C7.66667 15.8833 6.7 14.8333 6 13.55C5.31667 12.25 4.975 10.8167 4.975 9.25C4.975 7.53333 5.38333 5.99167 6.2 4.625C7.03333 3.24167 8.175 2.15833 9.625 1.375C11.0917 0.591666 12.7333 0.2 14.55 0.2C16.3667 0.2 18 0.591666 19.45 1.375C20.9 2.15833 22.0417 3.24167 22.875 4.625C23.7083 5.99167 24.125 7.53333 24.125 9.25C24.125 11.2833 23.55 13.0667 22.4 14.6C21.2667 16.1333 19.7583 17.2 17.875 17.8C18.2917 18.2333 18.6917 18.5417 19.075 18.725C19.475 18.925 19.9 19.025 20.35 19.025C21.4333 19.025 22.3833 18.5917 23.2 17.725L25 19.875ZM9.075 9.25C9.075 10.3333 9.30833 11.3 9.775 12.15C10.2583 13 10.9167 13.6667 11.75 14.15C12.5833 14.6167 13.5167 14.85 14.55 14.85C15.5833 14.85 16.5167 14.6167 17.35 14.15C18.1833 13.6667 18.8333 13 19.3 12.15C19.7833 11.3 20.025 10.3333 20.025 9.25C20.025 8.16667 19.7833 7.2 19.3 6.35C18.8333 5.5 18.1833 4.84167 17.35 4.375C16.5167 3.89167 15.5833 3.65 14.55 3.65C13.5167 3.65 12.5833 3.89167 11.75 4.375C10.9167 4.84167 10.2583 5.5 9.775 6.35C9.30833 7.2 9.075 8.16667 9.075 9.25ZM34.7438 0.499999C36.2938 0.499999 37.6354 0.758332 38.7688 1.275C39.9188 1.79167 40.8021 2.525 41.4188 3.475C42.0354 4.425 42.3438 5.55 42.3438 6.85C42.3438 8.13333 42.0354 9.25833 41.4188 10.225C40.8021 11.175 39.9188 11.9083 38.7688 12.425C37.6354 12.925 36.2938 13.175 34.7438 13.175H31.2188V18H27.1688V0.499999H34.7438ZM34.5188 9.875C35.7354 9.875 36.6604 9.61667 37.2938 9.1C37.9271 8.56667 38.2438 7.81667 38.2438 6.85C38.2438 5.86667 37.9271 5.11667 37.2938 4.6C36.6604 4.06667 35.7354 3.8 34.5188 3.8H31.2188V9.875H34.5188ZM45.2352 0.499999H49.2852V18H45.2352V0.499999ZM61.8133 18.3C60.0299 18.3 58.4133 17.9167 56.9633 17.15C55.5299 16.3667 54.3966 15.2917 53.5633 13.925C52.7466 12.5417 52.3383 10.9833 52.3383 9.25C52.3383 7.51667 52.7466 5.96667 53.5633 4.6C54.3966 3.21667 55.5299 2.14167 56.9633 1.375C58.4133 0.591666 60.0383 0.2 61.8383 0.2C63.3549 0.2 64.7216 0.466666 65.9383 1C67.1716 1.53333 68.2049 2.3 69.0383 3.3L66.4383 5.7C65.2549 4.33333 63.7883 3.65 62.0383 3.65C60.9549 3.65 59.9883 3.89167 59.1383 4.375C58.2883 4.84167 57.6216 5.5 57.1383 6.35C56.6716 7.2 56.4383 8.16667 56.4383 9.25C56.4383 10.3333 56.6716 11.3 57.1383 12.15C57.6216 13 58.2883 13.6667 59.1383 14.15C59.9883 14.6167 60.9549 14.85 62.0383 14.85C63.7883 14.85 65.2549 14.1583 66.4383 12.775L69.0383 15.175C68.2049 16.1917 67.1716 16.9667 65.9383 17.5C64.7049 18.0333 63.3299 18.3 61.8133 18.3ZM78.1482 11.125L75.7982 13.575V18H71.7732V0.499999H75.7982V8.675L83.5482 0.499999H88.0482L80.7982 8.3L88.4732 18H83.7482L78.1482 11.125Z" fill="#101010"/>
</g>
<defs>
<filter id="filter0_d_2_236" x="0.974976" y="0.200012" width="91.4983" height="29.825" filterUnits="userSpaceOnUse" color-interpolation-filters="sRGB">
<feFlood flood-opacity="0" result="BackgroundImageFix"/>
<feColorMatrix in="SourceAlpha" type="matrix" values="0 0 0 0 0 0 0 0 0 0 0 0 0 0 0 0 0 0 127 0" result="hardAlpha"/>
<feOffset dy="4"/>
<feGaussianBlur stdDeviation="2"/>
<feComposite in2="hardAlpha" operator="out"/>
<feColorMatrix type="matrix" values="0 0 0 0 0 0 0 0 0 0 0 0 0 0 0 0 0 0 0.25 0"/>
<feBlend mode="normal" in2="BackgroundImageFix" result="effect1_dropShadow_2_236"/>
<feBlend mode="normal" in="SourceGraphic" in2="effect1_dropShadow_2_236" result="shape"/>
</filter>
</defs>
</svg>
